# xmcd
#
# Track frame offsets:
#	150
#	17790
#	35977
#	57270
#	76142
#	95685
#	115967
#	138007
#	157142
#	177780
#	196515
#	215632
#	238935
#	257192
#	287155
#
# Disc length: 4263 seconds
#
# Revision: 2
# Processed by: cddbd v1.5.2PL0 Copyright (c) Steve Scherf et al.
# Submitted via: dBpowerAMP V4.0
#
DISCID=d910a50f
DTITLE=DJ Hum - Hum Batuque Club
DYEAR=2005
DGENRE=Blues
TTITLE0=Lino Crizz - Funk Na Quebrada
TTITLE1=Comany Soul - Madrugada Soul
TTITLE2=Thulla - Hey Irmão
TTITLE3=Orbe - Clima de Festa
TTITLE4=Paula Lima - Quero Ver Vc No Bailê
TTITLE5=Dj Hum , X , 13 - Vêm Comigo
TTITLE6=Instinto Urbano - Freestylizando
TTITLE7=Motirô
TTITLE8=Charme Faces - De Boa
TTITLE9=SP Funk - Tá Pra Nóiz
TTITLE10=Lá Postura - Baila
TTITLE11=Lá Postura - Baila
TTITLE12=Pretas Duet - Respeite- me
TTITLE13=Mara Nascimento - Ser Sua
TTITLE14=DATA
EXTD=
EXTT0=
EXTT1=
EXTT2=
EXTT3=
EXTT4=
EXTT5=
EXTT6=
EXTT7=
EXTT8=
EXTT9=
EXTT10=
EXTT11=
EXTT12=
EXTT13=
EXTT14=
PLAYORDER=
